<svg width="32" height="32" viewBox="0 0 32 32" fill="none" xmlns="http://www.w3.org/2000/svg">
<path d="M8.25 25C7.50848 25.0002 6.77621 24.8354 6.10624 24.5176C5.43626 24.1998 4.84535 23.737 4.37632 23.1627C3.90728 22.5883 3.57186 21.9169 3.39435 21.1969C3.21685 20.477 3.20169 19.7265 3.35 19C3.60748 17.8507 4.25334 16.8253 5.17871 16.0967C6.10407 15.368 7.25236 14.9807 8.43 15H10V25H8.25ZM23.75 25C24.4915 25.0002 25.2238 24.8354 25.8938 24.5176C26.5637 24.1998 27.1546 23.737 27.6237 23.1627C28.0927 22.5883 28.4281 21.9169 28.6056 21.1969C28.7832 20.477 28.7983 19.7265 28.65 19C28.3925 17.8507 27.7467 16.8253 26.8213 16.0967C25.8959 15.368 24.7476 14.9807 23.57 15H22V25H23.75Z" stroke="white" stroke-width="2" stroke-linecap="round" stroke-linejoin="round"/>
<path d="M7 15V13.82C6.96397 11.7594 7.62768 9.7475 8.88273 8.11284C10.1378 6.47818 11.91 5.31737 13.91 4.82C15.2354 4.50354 16.6154 4.49219 17.9459 4.78681C19.2764 5.08142 20.5225 5.67431 21.5905 6.52076C22.6584 7.3672 23.5202 8.4451 24.1108 9.67314C24.7014 10.9012 25.0055 12.2473 25 13.61V15M10 25C10 25.7956 10.3161 26.5587 10.8787 27.1213C11.4413 27.6839 12.2044 28 13 28" stroke="white" stroke-width="2" stroke-linecap="round" stroke-linejoin="round"/>
<path d="M16 29C16.5523 29 17 28.5523 17 28C17 27.4477 16.5523 27 16 27C15.4477 27 15 27.4477 15 28C15 28.5523 15.4477 29 16 29Z" fill="white"/>
<path d="M7.5 15.5V24.5" stroke="white" stroke-linecap="round" stroke-linejoin="round"/>
<path d="M24 15H22V25H24V15Z" fill="white"/>
</svg>
