<svg width="32" height="32" viewBox="0 0 32 32" fill="none" xmlns="http://www.w3.org/2000/svg">
<path d="M16 12.96C19.3137 12.96 22 10.2737 22 6.96C22 3.64629 19.3137 0.959999 16 0.959999C12.6863 0.959999 10 3.64629 10 6.96C10 10.2737 12.6863 12.96 16 12.96Z" fill="white"/>
<path d="M30.86 26.84C30.2376 24.0063 28.8105 21.4125 26.75 19.37C26.2499 18.8681 25.7079 18.4098 25.13 18C22.498 16.0258 19.29 14.9716 16 15C11.9771 14.9794 8.10931 16.5503 5.24 19.37C3.17951 21.4125 1.75238 24.0063 1.13 26.84C1.02182 27.3411 1.02767 27.8601 1.1471 28.3586C1.26653 28.8571 1.4965 29.3224 1.82 29.72C2.15502 30.1262 2.57691 30.4521 3.05457 30.6736C3.53223 30.8951 4.05351 31.0067 4.58 31H27.42C27.948 31.0003 28.4694 30.8819 28.9454 30.6534C29.4214 30.4249 29.84 30.0922 30.17 29.68C30.4877 29.287 30.7143 28.8285 30.8336 28.3374C30.953 27.8464 30.962 27.335 30.86 26.84Z" fill="white"/>
</svg>
