<svg width="48" height="48" viewBox="0 0 48 48" fill="none" xmlns="http://www.w3.org/2000/svg">
<g clip-path="url(#clip0_1_2)">
<path d="M38.86 25.95C38.94 25.31 39 24.66 39 24C39 23.34 38.94 22.69 38.86 22.05L43.09 18.74C43.47 18.44 43.58 17.9 43.33 17.46L39.33 10.53C39.08 10.1 38.56 9.92 38.11 10.1L33.13 12.11C32.1 11.32 30.97 10.65 29.75 10.14L29 4.84C28.91 4.37 28.5 4 28 4H20C19.5 4 19.09 4.37 19.01 4.84L18.26 10.14C17.0511 10.6442 15.9145 11.3067 14.88 12.11L9.9 10.1C9.67866 10.0156 9.43454 10.0124 9.21111 10.0912C8.98768 10.1699 8.79947 10.3254 8.68 10.53L4.68 17.46C4.43 17.89 4.54 18.43 4.92 18.74L9.14 22.05C9.06 22.69 9 23.34 9 24C9 24.66 9.06 25.31 9.14 25.95L4.92 29.26C4.54 29.56 4.43 30.1 4.68 30.54L8.68 37.47C8.93 37.9 9.45 38.08 9.9 37.9L14.88 35.89C15.91 36.68 17.04 37.35 18.26 37.86L19.01 43.16C19.09 43.63 19.5 44 20 44H28C28.5 44 28.91 43.63 28.99 43.16L29.74 37.86C30.9489 37.3558 32.0855 36.6933 33.12 35.89L38.1 37.9C38.3213 37.9844 38.5655 37.9876 38.7889 37.9088C39.0123 37.8301 39.2005 37.6746 39.32 37.47L43.32 30.54C43.57 30.11 43.46 29.57 43.08 29.26L38.86 25.95ZM24 31C20.13 31 17 27.87 17 24C17 20.13 20.13 17 24 17C27.87 17 31 20.13 31 24C31 27.87 27.87 31 24 31Z" fill="white"/>
</g>
<defs>
<clipPath id="clip0_1_2">
<rect width="48" height="48" fill="white"/>
</clipPath>
</defs>
</svg>
